<svg width="20" height="17" viewBox="0 0 20 17" fill="none" xmlns="http://www.w3.org/2000/svg">
<path d="M19.1667 1.49996C18.3687 2.06285 17.4851 2.49338 16.55 2.77496C16.0482 2.19788 15.3812 1.78887 14.6392 1.60323C13.8973 1.41759 13.1163 1.46429 12.4018 1.737C11.6873 2.00972 11.0737 2.49529 10.6442 3.12805C10.2146 3.76082 9.98979 4.51024 10 5.27496V6.10829C8.53557 6.14626 7.08444 5.82147 5.77588 5.16283C4.46733 4.50419 3.34197 3.53215 2.50004 2.33329C2.50004 2.33329 -0.833292 9.83329 6.66671 13.1666C4.95048 14.3316 2.906 14.9157 0.833374 14.8333C8.33337 19 17.5 14.8333 17.5 5.24996C17.4993 5.01783 17.477 4.78629 17.4334 4.55829C18.2839 3.71953 18.8841 2.66055 19.1667 1.49996V1.49996Z" stroke="white" stroke-linecap="round" stroke-linejoin="round"/>
</svg>
